<?xml version="1.0" encoding="UTF-8"?>
<svg xmlns="http://www.w3.org/2000/svg" 
     width="60mm" height="60mm" 
     viewBox="0 0 60 60">
  <title>GitHub Logo - Generated by GitHub Copilot CLI</title>
  <desc>3D printable GitHub logo contour, 60mm diameter</desc>
  
  <!-- Outer circle -->
  <circle cx="30" cy="30" r="29.5" fill="none" stroke="black" stroke-width="0.5"/>
  
  <!-- Logo area -->
  <g transform="translate(0,0)">
    <rect x="26.70" y="8.10" width="6.60" height="0.30" fill="black"/>
    <rect x="25.05" y="8.40" width="9.90" height="0.30" fill="black"/>
    <rect x="24.00" y="8.70" width="12.15" height="0.30" fill="black"/>
    <rect x="22.95" y="9.00" width="14.10" height="0.30" fill="black"/>
    <rect x="22.05" y="9.30" width="15.90" height="0.30" fill="black"/>
    <rect x="21.30" y="9.60" width="17.40" height="0.30" fill="black"/>
    <rect x="20.70" y="9.90" width="18.60" height="0.30" fill="black"/>
    <rect x="20.10" y="10.20" width="19.95" height="0.30" fill="black"/>
    <rect x="19.50" y="10.50" width="21.00" height="0.30" fill="black"/>
    <rect x="18.90" y="10.80" width="22.20" height="0.30" fill="black"/>
    <rect x="18.45" y="11.10" width="23.10" height="0.30" fill="black"/>
    <rect x="17.85" y="11.40" width="24.30" height="0.30" fill="black"/>
    <rect x="17.40" y="11.70" width="25.20" height="0.30" fill="black"/>
    <rect x="17.10" y="12.00" width="25.80" height="0.30" fill="black"/>
    <rect x="16.65" y="12.30" width="26.70" height="0.30" fill="black"/>
    <rect x="16.20" y="12.60" width="27.60" height="0.30" fill="black"/>
    <rect x="15.90" y="12.90" width="28.20" height="0.30" fill="black"/>
    <rect x="15.45" y="13.20" width="29.10" height="0.30" fill="black"/>
    <rect x="15.15" y="13.50" width="29.70" height="0.30" fill="black"/>
    <rect x="14.85" y="13.80" width="30.30" height="0.30" fill="black"/>
    <rect x="14.55" y="14.10" width="30.90" height="0.30" fill="black"/>
    <rect x="14.25" y="14.40" width="31.50" height="0.30" fill="black"/>
    <rect x="13.95" y="14.70" width="32.10" height="0.30" fill="black"/>
    <rect x="13.65" y="15.00" width="32.70" height="0.30" fill="black"/>
    <rect x="13.35" y="15.30" width="33.30" height="0.30" fill="black"/>
    <rect x="13.05" y="15.60" width="33.90" height="0.30" fill="black"/>
    <rect x="12.75" y="15.90" width="34.50" height="0.30" fill="black"/>
    <rect x="12.60" y="16.20" width="34.80" height="0.30" fill="black"/>
    <rect x="12.30" y="16.50" width="35.40" height="0.30" fill="black"/>
    <rect x="12.15" y="16.80" width="35.70" height="0.30" fill="black"/>
    <rect x="11.85" y="17.10" width="36.30" height="0.30" fill="black"/>
    <rect x="11.70" y="17.40" width="6.45" height="0.30" fill="black"/>
    <rect x="20.10" y="17.40" width="19.80" height="0.30" fill="black"/>
    <rect x="41.85" y="17.40" width="6.45" height="0.30" fill="black"/>
    <rect x="11.40" y="17.70" width="6.60" height="0.30" fill="black"/>
    <rect x="21.00" y="17.70" width="18.00" height="0.30" fill="black"/>
    <rect x="42.00" y="17.70" width="6.60" height="0.30" fill="black"/>
    <rect x="11.25" y="18.00" width="6.60" height="0.30" fill="black"/>
    <rect x="21.75" y="18.00" width="16.65" height="0.30" fill="black"/>
    <rect x="42.15" y="18.00" width="6.60" height="0.30" fill="black"/>
    <rect x="11.10" y="18.30" width="6.75" height="0.30" fill="black"/>
    <rect x="22.35" y="18.30" width="15.45" height="0.30" fill="black"/>
    <rect x="42.15" y="18.30" width="6.75" height="0.30" fill="black"/>
    <rect x="10.80" y="18.60" width="6.90" height="0.30" fill="black"/>
    <rect x="22.80" y="18.60" width="14.40" height="0.30" fill="black"/>
    <rect x="42.30" y="18.60" width="6.90" height="0.30" fill="black"/>
    <rect x="10.65" y="18.90" width="7.05" height="0.30" fill="black"/>
    <rect x="23.40" y="18.90" width="4.65" height="0.30" fill="black"/>
    <rect x="31.95" y="18.90" width="4.80" height="0.30" fill="black"/>
    <rect x="42.30" y="18.90" width="7.05" height="0.30" fill="black"/>
    <rect x="10.50" y="19.20" width="7.20" height="0.30" fill="black"/>
    <rect x="23.85" y="19.20" width="2.10" height="0.30" fill="black"/>
    <rect x="34.05" y="19.20" width="2.10" height="0.30" fill="black"/>
    <rect x="42.45" y="19.20" width="7.05" height="0.30" fill="black"/>
    <rect x="10.35" y="19.50" width="7.20" height="0.30" fill="black"/>
    <rect x="24.30" y="19.50" width="0.30" height="0.30" fill="black"/>
    <rect x="35.40" y="19.50" width="0.30" height="0.30" fill="black"/>
    <rect x="42.45" y="19.50" width="7.20" height="0.30" fill="black"/>
    <rect x="10.20" y="19.80" width="7.35" height="0.30" fill="black"/>
    <rect x="42.45" y="19.80" width="7.35" height="0.30" fill="black"/>
    <rect x="10.05" y="20.10" width="7.50" height="0.30" fill="black"/>
    <rect x="42.45" y="20.10" width="7.50" height="0.30" fill="black"/>
    <rect x="9.90" y="20.40" width="7.65" height="0.30" fill="black"/>
    <rect x="42.45" y="20.40" width="7.65" height="0.30" fill="black"/>
    <rect x="9.75" y="20.70" width="7.80" height="0.30" fill="black"/>
    <rect x="42.45" y="20.70" width="7.80" height="0.30" fill="black"/>
    <rect x="9.60" y="21.00" width="7.95" height="0.30" fill="black"/>
    <rect x="42.45" y="21.00" width="7.95" height="0.30" fill="black"/>
    <rect x="9.45" y="21.30" width="8.10" height="0.30" fill="black"/>
    <rect x="42.45" y="21.30" width="8.10" height="0.30" fill="black"/>
    <rect x="9.30" y="21.60" width="8.25" height="0.30" fill="black"/>
    <rect x="42.45" y="21.60" width="8.25" height="0.30" fill="black"/>
    <rect x="9.15" y="21.90" width="8.40" height="0.30" fill="black"/>
    <rect x="42.45" y="21.90" width="8.40" height="0.30" fill="black"/>
    <rect x="9.15" y="22.20" width="8.55" height="0.30" fill="black"/>
    <rect x="42.30" y="22.20" width="8.70" height="0.30" fill="black"/>
    <rect x="9.00" y="22.50" width="8.70" height="0.30" fill="black"/>
    <rect x="42.30" y="22.50" width="8.70" height="0.30" fill="black"/>
    <rect x="8.85" y="22.80" width="9.00" height="0.30" fill="black"/>
    <rect x="42.15" y="22.80" width="9.00" height="0.30" fill="black"/>
    <rect x="8.70" y="23.10" width="9.15" height="0.30" fill="black"/>
    <rect x="42.15" y="23.10" width="9.15" height="0.30" fill="black"/>
    <rect x="8.70" y="23.40" width="9.15" height="0.30" fill="black"/>
    <rect x="42.15" y="23.40" width="9.15" height="0.30" fill="black"/>
    <rect x="8.55" y="23.70" width="9.00" height="0.30" fill="black"/>
    <rect x="42.45" y="23.70" width="9.00" height="0.30" fill="black"/>
    <rect x="8.40" y="24.00" width="9.00" height="0.30" fill="black"/>
    <rect x="42.75" y="24.00" width="8.85" height="0.30" fill="black"/>
    <rect x="8.40" y="24.30" width="8.70" height="0.30" fill="black"/>
    <rect x="42.90" y="24.30" width="8.70" height="0.30" fill="black"/>
    <rect x="8.25" y="24.60" width="8.70" height="0.30" fill="black"/>
    <rect x="43.05" y="24.60" width="8.70" height="0.30" fill="black"/>
    <rect x="8.25" y="24.90" width="8.55" height="0.30" fill="black"/>
    <rect x="43.20" y="24.90" width="8.55" height="0.30" fill="black"/>
    <rect x="8.10" y="25.20" width="8.55" height="0.30" fill="black"/>
    <rect x="43.50" y="25.20" width="8.40" height="0.30" fill="black"/>
    <rect x="8.10" y="25.50" width="8.40" height="0.30" fill="black"/>
    <rect x="43.50" y="25.50" width="8.40" height="0.30" fill="black"/>
    <rect x="7.95" y="25.80" width="8.40" height="0.30" fill="black"/>
    <rect x="43.65" y="25.80" width="8.40" height="0.30" fill="black"/>
    <rect x="7.95" y="26.10" width="8.25" height="0.30" fill="black"/>
    <rect x="43.80" y="26.10" width="8.25" height="0.30" fill="black"/>
    <rect x="7.95" y="26.40" width="8.10" height="0.30" fill="black"/>
    <rect x="43.95" y="26.40" width="8.25" height="0.30" fill="black"/>
    <rect x="7.80" y="26.70" width="8.25" height="0.30" fill="black"/>
    <rect x="43.95" y="26.70" width="8.25" height="0.30" fill="black"/>
    <rect x="7.80" y="27.00" width="8.10" height="0.30" fill="black"/>
    <rect x="44.10" y="27.00" width="8.10" height="0.30" fill="black"/>
    <rect x="7.80" y="27.30" width="8.10" height="0.30" fill="black"/>
    <rect x="44.10" y="27.30" width="8.10" height="0.30" fill="black"/>
    <rect x="7.65" y="27.60" width="8.10" height="0.30" fill="black"/>
    <rect x="44.25" y="27.60" width="8.10" height="0.30" fill="black"/>
    <rect x="7.65" y="27.90" width="8.10" height="0.30" fill="black"/>
    <rect x="44.25" y="27.90" width="8.10" height="0.30" fill="black"/>
    <rect x="7.65" y="28.20" width="8.10" height="0.30" fill="black"/>
    <rect x="44.25" y="28.20" width="8.10" height="0.30" fill="black"/>
    <rect x="7.65" y="28.50" width="8.10" height="0.30" fill="black"/>
    <rect x="44.40" y="28.50" width="7.95" height="0.30" fill="black"/>
    <rect x="7.65" y="28.80" width="7.95" height="0.30" fill="black"/>
    <rect x="44.40" y="28.80" width="8.10" height="0.30" fill="black"/>
    <rect x="7.50" y="29.10" width="8.10" height="0.30" fill="black"/>
    <rect x="44.40" y="29.10" width="8.10" height="0.30" fill="black"/>
    <rect x="7.50" y="29.40" width="8.10" height="0.30" fill="black"/>
    <rect x="44.40" y="29.40" width="8.10" height="0.30" fill="black"/>
    <rect x="7.50" y="29.70" width="8.10" height="0.30" fill="black"/>
    <rect x="44.40" y="29.70" width="8.10" height="0.30" fill="black"/>
    <rect x="7.50" y="30.00" width="8.10" height="0.30" fill="black"/>
    <rect x="44.40" y="30.00" width="8.10" height="0.30" fill="black"/>
    <rect x="7.50" y="30.30" width="8.25" height="0.30" fill="black"/>
    <rect x="44.40" y="30.30" width="8.10" height="0.30" fill="black"/>
    <rect x="7.50" y="30.60" width="8.25" height="0.30" fill="black"/>
    <rect x="44.40" y="30.60" width="8.10" height="0.30" fill="black"/>
    <rect x="7.50" y="30.90" width="8.25" height="0.30" fill="black"/>
    <rect x="44.25" y="30.90" width="8.25" height="0.30" fill="black"/>
    <rect x="7.50" y="31.20" width="8.25" height="0.30" fill="black"/>
    <rect x="44.25" y="31.20" width="8.25" height="0.30" fill="black"/>
    <rect x="7.50" y="31.50" width="8.25" height="0.30" fill="black"/>
    <rect x="44.25" y="31.50" width="8.25" height="0.30" fill="black"/>
    <rect x="7.50" y="31.80" width="8.25" height="0.30" fill="black"/>
    <rect x="44.25" y="31.80" width="8.25" height="0.30" fill="black"/>
    <rect x="7.50" y="32.10" width="8.40" height="0.30" fill="black"/>
    <rect x="44.10" y="32.10" width="8.40" height="0.30" fill="black"/>
    <rect x="7.65" y="32.40" width="8.25" height="0.30" fill="black"/>
    <rect x="44.10" y="32.40" width="8.25" height="0.30" fill="black"/>
    <rect x="7.65" y="32.70" width="8.25" height="0.30" fill="black"/>
    <rect x="44.10" y="32.70" width="8.25" height="0.30" fill="black"/>
    <rect x="7.65" y="33.00" width="8.40" height="0.30" fill="black"/>
    <rect x="43.95" y="33.00" width="8.40" height="0.30" fill="black"/>
    <rect x="7.65" y="33.30" width="8.40" height="0.30" fill="black"/>
    <rect x="43.95" y="33.30" width="8.40" height="0.30" fill="black"/>
    <rect x="7.65" y="33.60" width="8.55" height="0.30" fill="black"/>
    <rect x="43.80" y="33.60" width="8.55" height="0.30" fill="black"/>
    <rect x="7.80" y="33.90" width="8.55" height="0.30" fill="black"/>
    <rect x="43.80" y="33.90" width="8.40" height="0.30" fill="black"/>
    <rect x="7.80" y="34.20" width="8.55" height="0.30" fill="black"/>
    <rect x="43.65" y="34.20" width="8.55" height="0.30" fill="black"/>
    <rect x="7.80" y="34.50" width="8.70" height="0.30" fill="black"/>
    <rect x="43.50" y="34.50" width="8.70" height="0.30" fill="black"/>
    <rect x="7.95" y="34.80" width="8.70" height="0.30" fill="black"/>
    <rect x="43.50" y="34.80" width="8.55" height="0.30" fill="black"/>
    <rect x="7.95" y="35.10" width="8.85" height="0.30" fill="black"/>
    <rect x="43.35" y="35.10" width="8.70" height="0.30" fill="black"/>
    <rect x="8.10" y="35.40" width="8.85" height="0.30" fill="black"/>
    <rect x="43.20" y="35.40" width="8.70" height="0.30" fill="black"/>
    <rect x="8.10" y="35.70" width="9.00" height="0.30" fill="black"/>
    <rect x="43.05" y="35.70" width="8.85" height="0.30" fill="black"/>
    <rect x="8.10" y="36.00" width="9.15" height="0.30" fill="black"/>
    <rect x="42.75" y="36.00" width="9.15" height="0.30" fill="black"/>
    <rect x="8.25" y="36.30" width="9.15" height="0.30" fill="black"/>
    <rect x="42.60" y="36.30" width="9.15" height="0.30" fill="black"/>
    <rect x="8.40" y="36.60" width="9.15" height="0.30" fill="black"/>
    <rect x="42.45" y="36.60" width="9.15" height="0.30" fill="black"/>
    <rect x="8.40" y="36.90" width="9.45" height="0.30" fill="black"/>
    <rect x="42.15" y="36.90" width="9.45" height="0.30" fill="black"/>
    <rect x="8.55" y="37.20" width="9.60" height="0.30" fill="black"/>
    <rect x="42.00" y="37.20" width="9.45" height="0.30" fill="black"/>
    <rect x="8.55" y="37.50" width="9.75" height="0.30" fill="black"/>
    <rect x="41.70" y="37.50" width="9.75" height="0.30" fill="black"/>
    <rect x="8.70" y="37.80" width="10.05" height="0.30" fill="black"/>
    <rect x="41.40" y="37.80" width="9.90" height="0.30" fill="black"/>
    <rect x="8.85" y="38.10" width="10.20" height="0.30" fill="black"/>
    <rect x="40.95" y="38.10" width="10.20" height="0.30" fill="black"/>
    <rect x="8.85" y="38.40" width="10.50" height="0.30" fill="black"/>
    <rect x="40.65" y="38.40" width="10.50" height="0.30" fill="black"/>
    <rect x="9.00" y="38.70" width="10.80" height="0.30" fill="black"/>
    <rect x="40.20" y="38.70" width="10.80" height="0.30" fill="black"/>
    <rect x="9.15" y="39.00" width="11.25" height="0.30" fill="black"/>
    <rect x="39.60" y="39.00" width="11.25" height="0.30" fill="black"/>
    <rect x="9.30" y="39.30" width="11.70" height="0.30" fill="black"/>
    <rect x="39.00" y="39.30" width="11.70" height="0.30" fill="black"/>
    <rect x="9.45" y="39.60" width="4.05" height="0.30" fill="black"/>
    <rect x="15.60" y="39.60" width="6.15" height="0.30" fill="black"/>
    <rect x="38.25" y="39.60" width="12.30" height="0.30" fill="black"/>
    <rect x="9.45" y="39.90" width="4.05" height="0.30" fill="black"/>
    <rect x="16.20" y="39.90" width="6.30" height="0.30" fill="black"/>
    <rect x="37.35" y="39.90" width="13.20" height="0.30" fill="black"/>
    <rect x="9.60" y="40.20" width="4.05" height="0.30" fill="black"/>
    <rect x="16.65" y="40.20" width="7.05" height="0.30" fill="black"/>
    <rect x="36.30" y="40.20" width="14.10" height="0.30" fill="black"/>
    <rect x="9.75" y="40.50" width="4.20" height="0.30" fill="black"/>
    <rect x="16.95" y="40.50" width="8.70" height="0.30" fill="black"/>
    <rect x="34.35" y="40.50" width="15.90" height="0.30" fill="black"/>
    <rect x="9.90" y="40.80" width="4.50" height="0.30" fill="black"/>
    <rect x="17.25" y="40.80" width="8.40" height="0.30" fill="black"/>
    <rect x="34.35" y="40.80" width="15.75" height="0.30" fill="black"/>
    <rect x="10.05" y="41.10" width="4.80" height="0.30" fill="black"/>
    <rect x="17.55" y="41.10" width="7.80" height="0.30" fill="black"/>
    <rect x="34.65" y="41.10" width="15.30" height="0.30" fill="black"/>
    <rect x="10.20" y="41.40" width="4.95" height="0.30" fill="black"/>
    <rect x="17.70" y="41.40" width="7.50" height="0.30" fill="black"/>
    <rect x="34.80" y="41.40" width="15.00" height="0.30" fill="black"/>
    <rect x="10.35" y="41.70" width="5.10" height="0.30" fill="black"/>
    <rect x="18.00" y="41.70" width="7.05" height="0.30" fill="black"/>
    <rect x="34.95" y="41.70" width="14.70" height="0.30" fill="black"/>
    <rect x="10.65" y="42.00" width="5.10" height="0.30" fill="black"/>
    <rect x="18.15" y="42.00" width="6.75" height="0.30" fill="black"/>
    <rect x="35.10" y="42.00" width="14.25" height="0.30" fill="black"/>
    <rect x="10.80" y="42.30" width="5.10" height="0.30" fill="black"/>
    <rect x="18.30" y="42.30" width="6.45" height="0.30" fill="black"/>
    <rect x="35.25" y="42.30" width="13.95" height="0.30" fill="black"/>
    <rect x="10.95" y="42.60" width="5.10" height="0.30" fill="black"/>
    <rect x="18.60" y="42.60" width="6.15" height="0.30" fill="black"/>
    <rect x="35.40" y="42.60" width="13.65" height="0.30" fill="black"/>
    <rect x="11.10" y="42.90" width="5.10" height="0.30" fill="black"/>
    <rect x="18.90" y="42.90" width="5.70" height="0.30" fill="black"/>
    <rect x="35.40" y="42.90" width="13.50" height="0.30" fill="black"/>
    <rect x="11.40" y="43.20" width="5.10" height="0.30" fill="black"/>
    <rect x="19.20" y="43.20" width="5.40" height="0.30" fill="black"/>
    <rect x="35.55" y="43.20" width="13.05" height="0.30" fill="black"/>
    <rect x="11.55" y="43.50" width="5.10" height="0.30" fill="black"/>
    <rect x="19.65" y="43.50" width="4.80" height="0.30" fill="black"/>
    <rect x="35.55" y="43.50" width="12.90" height="0.30" fill="black"/>
    <rect x="11.70" y="43.80" width="4.95" height="0.30" fill="black"/>
    <rect x="20.10" y="43.80" width="3.75" height="0.30" fill="black"/>
    <rect x="35.55" y="43.80" width="12.75" height="0.30" fill="black"/>
    <rect x="12.00" y="44.10" width="4.80" height="0.30" fill="black"/>
    <rect x="21.15" y="44.10" width="1.50" height="0.30" fill="black"/>
    <rect x="35.55" y="44.10" width="12.45" height="0.30" fill="black"/>
    <rect x="12.15" y="44.40" width="4.80" height="0.30" fill="black"/>
    <rect x="35.55" y="44.40" width="12.30" height="0.30" fill="black"/>
    <rect x="12.45" y="44.70" width="4.65" height="0.30" fill="black"/>
    <rect x="35.55" y="44.70" width="12.00" height="0.30" fill="black"/>
    <rect x="12.75" y="45.00" width="4.65" height="0.30" fill="black"/>
    <rect x="35.55" y="45.00" width="11.70" height="0.30" fill="black"/>
    <rect x="12.90" y="45.30" width="4.65" height="0.30" fill="black"/>
    <rect x="35.55" y="45.30" width="11.55" height="0.30" fill="black"/>
    <rect x="13.20" y="45.60" width="4.65" height="0.30" fill="black"/>
    <rect x="35.55" y="45.60" width="11.25" height="0.30" fill="black"/>
    <rect x="13.50" y="45.90" width="4.65" height="0.30" fill="black"/>
    <rect x="35.55" y="45.90" width="10.95" height="0.30" fill="black"/>
    <rect x="13.80" y="46.20" width="4.80" height="0.30" fill="black"/>
    <rect x="35.55" y="46.20" width="10.65" height="0.30" fill="black"/>
    <rect x="14.10" y="46.50" width="5.10" height="0.30" fill="black"/>
    <rect x="35.55" y="46.50" width="10.35" height="0.30" fill="black"/>
    <rect x="14.40" y="46.80" width="5.70" height="0.30" fill="black"/>
    <rect x="24.15" y="46.80" width="0.15" height="0.30" fill="black"/>
    <rect x="35.55" y="46.80" width="10.05" height="0.30" fill="black"/>
    <rect x="14.70" y="47.10" width="9.75" height="0.30" fill="black"/>
    <rect x="35.55" y="47.10" width="9.75" height="0.30" fill="black"/>
    <rect x="15.00" y="47.40" width="9.45" height="0.30" fill="black"/>
    <rect x="35.55" y="47.40" width="9.45" height="0.30" fill="black"/>
    <rect x="15.30" y="47.70" width="9.15" height="0.30" fill="black"/>
    <rect x="35.55" y="47.70" width="9.15" height="0.30" fill="black"/>
    <rect x="15.60" y="48.00" width="8.85" height="0.30" fill="black"/>
    <rect x="35.55" y="48.00" width="8.85" height="0.30" fill="black"/>
    <rect x="16.05" y="48.30" width="8.40" height="0.30" fill="black"/>
    <rect x="35.55" y="48.30" width="8.40" height="0.30" fill="black"/>
    <rect x="16.35" y="48.60" width="8.10" height="0.30" fill="black"/>
    <rect x="35.55" y="48.60" width="8.10" height="0.30" fill="black"/>
    <rect x="16.80" y="48.90" width="7.65" height="0.30" fill="black"/>
    <rect x="35.55" y="48.90" width="7.65" height="0.30" fill="black"/>
    <rect x="17.25" y="49.20" width="7.20" height="0.30" fill="black"/>
    <rect x="35.55" y="49.20" width="7.20" height="0.30" fill="black"/>
    <rect x="17.70" y="49.50" width="6.75" height="0.30" fill="black"/>
    <rect x="35.55" y="49.50" width="6.75" height="0.30" fill="black"/>
    <rect x="18.15" y="49.80" width="6.30" height="0.30" fill="black"/>
    <rect x="35.55" y="49.80" width="6.30" height="0.30" fill="black"/>
    <rect x="18.60" y="50.10" width="5.85" height="0.30" fill="black"/>
    <rect x="35.55" y="50.10" width="5.85" height="0.30" fill="black"/>
    <rect x="19.20" y="50.40" width="5.25" height="0.30" fill="black"/>
    <rect x="35.55" y="50.40" width="5.25" height="0.30" fill="black"/>
    <rect x="19.65" y="50.70" width="4.80" height="0.30" fill="black"/>
    <rect x="35.55" y="50.70" width="4.80" height="0.30" fill="black"/>
    <rect x="20.25" y="51.00" width="4.20" height="0.30" fill="black"/>
    <rect x="35.55" y="51.00" width="4.20" height="0.30" fill="black"/>
    <rect x="21.00" y="51.30" width="3.45" height="0.30" fill="black"/>
    <rect x="35.55" y="51.30" width="3.45" height="0.30" fill="black"/>
    <rect x="21.75" y="51.60" width="2.55" height="0.30" fill="black"/>
    <rect x="35.70" y="51.60" width="2.55" height="0.30" fill="black"/>
    <rect x="22.50" y="51.90" width="1.50" height="0.30" fill="black"/>
    <rect x="36.00" y="51.90" width="1.50" height="0.30" fill="black"/>
  </g>
</svg>